<svg xmlns="http://www.w3.org/2000/svg" viewBox="0 0 1280 720" class="x_r8eQXclQHy5Jjno7pU"><path fill="#FFF" fill-opacity="0.7" fill-rule="evenodd" d="M1280 0v720H0V0h1280zM658.215 95.79a286.506 286.506 0 00-31.573-.605c-3.545.197-8.59.56-14.622 1.286-6.207.747-16.005 2.002-28.095 5.248a155.94 155.94 0 00-16.938 5.584c-18.993 7.515-37.088 18.327-50.068 33.828-19.713 23.543-29.338 53.4-33.045 83.01-3.922 31.334 1.288 62.583 2.466 93.896.036.933-.066 1.933-1.189 2.205-.489.12-1.01.044-1.49-.105-2.367-.735-3.576-2.94-5.427-4.353-4.138-3.16-10.825-3.19-14.466.709-5.106 5.47-4.03 13.544-2.5 20.126a1882.27 1882.27 0 015.703 25.242l.698 3.203c3.236 14.859 5.256 30.448 14.16 43.384 1.275 1.854 2.705 3.69 4.675 4.858 4.438 2.63 8.543 3.032 11.32 7.741 2.541 4.307 3.22 9.748 4.45 14.478 3.743 14.39 10.884 27.878 17.09 41.39 7.208 15.702 15.101 31.167 24.77 45.629 13.507 20.203 30.719 38.55 52.234 50.83 13.213 7.54 29.09 13.962 44.455 13.237l.01-.002.011.002c15.13.714 30.754-5.501 43.844-12.89l.611-.347c21.515-12.28 38.727-30.627 52.235-50.83 9.668-14.462 17.561-29.927 24.77-45.629 6.205-13.512 13.346-27 17.087-41.39 1.23-4.73 1.911-10.171 4.451-14.478 2.779-4.709 6.883-5.112 11.32-7.74 1.972-1.17 3.401-3.005 4.676-4.86 8.904-12.935 10.925-28.524 14.16-43.383l.698-3.203a1877.285 1877.285 0 015.703-25.242c1.528-6.582 2.606-14.657-2.5-20.126-3.64-3.9-10.327-3.869-14.466-.71-1.851 1.414-3.06 3.619-5.426 4.354-.48.15-1.002.224-1.491.105-1.123-.272-1.225-1.272-1.189-2.205 1.179-31.313 6.388-62.562 2.466-93.896-3.707-29.61-13.332-59.467-33.045-83.01-12.98-15.501-31.075-26.313-50.067-33.828-11.67-4.617-24.272-7.12-27.795-7.833-11.799-2.391-21.042-3.11-28.671-3.68zM642.24 586.523l-.708.05-.699.036-.698-.037c-.236-.015-.472-.03-.708-.049h2.813z"></path></svg>