<svg xmlns="http://www.w3.org/2000/svg" viewBox="0 0 386 524" class="xsnSbKRs6MZbpP2odJGk _6X0Zl0a0b8R2wCqGS_K"><path fill="none" stroke="currentColor" stroke-width="5.006" d="M191.585 521c-.686 0-1.592-.013-2.81-.052a69.953 69.953 0 01-4.575-.296 72.809 72.809 0 01-4.533-.597 79.015 79.015 0 01-4.472-.87 85.112 85.112 0 01-4.362-1.102 91.261 91.261 0 01-4.273-1.312 101.02 101.02 0 01-4.155-1.484 114.88 114.88 0 01-4.056-1.64 125.655 125.655 0 01-7.787-3.652 147.069 147.069 0 01-7.304-3.993c-20.9-12.179-39.54-30.642-55.409-54.88-8.67-13.241-16.471-27.9-25.299-47.536-1.196-2.66-2.43-5.319-3.664-7.985-5.222-11.272-10.624-22.928-13.847-35.587-.338-1.325-.641-2.7-.943-4.093-.625-2.866-1.27-5.83-2.225-7.484-.379-.25-1.374-.71-2.115-1.054-1.373-.635-3.08-1.427-4.939-2.55-3.91-2.368-6.378-5.567-8.277-8.385-8.738-12.96-11.7-27.823-14.313-40.938-.457-2.292-.912-4.578-1.397-6.848l-.685-3.217a1892.951 1892.951 0 00-5.588-25.25c-1.25-5.49-4.567-20.075 5.26-30.824 3.985-4.36 9.824-6.86 16.017-6.86.744 0 1.487.036 2.222.105-.273-3.957-.572-7.901-.865-11.79-1.665-22.04-3.386-44.83-.563-67.858 4.469-36.439 16.293-66.575 35.149-89.569 12.744-15.54 30.924-28.155 54.037-37.494a163.732 163.732 0 0117.99-6.058c13.257-3.633 24.137-4.97 29.366-5.612 5.05-.62 10.155-1.079 15.178-1.363a292.987 292.987 0 0110.846-.205c7.276 0 14.62.278 21.829.828 7.234.551 17.14 1.306 29.746 3.915l.227.047c4.19.865 16.946 3.5 29.19 8.448 23.114 9.339 41.293 21.953 54.037 37.494 18.855 22.995 30.681 53.13 35.149 89.569 2.824 23.028 1.102 45.818-.563 67.859-.293 3.888-.591 7.832-.864 11.79a23.46 23.46 0 012.222-.105c6.193 0 12.032 2.5 16.018 6.86 9.825 10.747 6.507 25.332 5.259 30.822a1923.38 1923.38 0 00-5.588 25.246l-.685 3.22c-.484 2.27-.94 4.555-1.397 6.844-2.613 13.116-5.575 27.983-14.313 40.944-1.899 2.817-4.367 6.017-8.279 8.384-1.858 1.124-3.565 1.916-4.937 2.551-.738.344-1.727.8-2.11 1.05-.976 1.733-1.614 4.658-2.23 7.49a121.69 121.69 0 01-.943 4.09c-3.223 12.657-8.622 24.311-13.844 35.58-1.236 2.67-2.47 5.33-3.667 7.993-8.826 19.633-16.63 34.293-25.3 47.536-15.87 24.238-34.509 42.701-55.4 54.874a149.984 149.984 0 01-7.28 3.982 129.842 129.842 0 01-7.794 3.659 108.88 108.88 0 01-8.229 3.133 93.884 93.884 0 01-4.282 1.313 79.774 79.774 0 01-8.824 1.97 72.51 72.51 0 01-4.558.602 66.17 66.17 0 01-6.885.323l-1.73-.005c-.38.014-.884.027-1.584.027z"></path></svg>